<svg id="Layer_1" data-name="Layer 1" xmlns="http://www.w3.org/2000/svg" viewBox="0 0 250.37 115.13"><defs><style>.cls-1{fill:#65737b;}.cls-2{fill:#db3c31;}.cls-3{fill:#009247;}.cls-4{fill:#ee4037;}.cls-5{fill:#36b24a;}</style></defs><path class="cls-1" d="M645.25,412.11l19.26-22.86H646.26v-8h30.33v6.9L657.4,411H677v8H645.25Z" transform="translate(-558.24 -326.93)"/><path class="cls-1" d="M693.62,419.73a14.74,14.74,0,0,1-5.21-.9,12.13,12.13,0,0,1-4.13-2.52,12,12,0,0,1-2.73-3.81,11.16,11.16,0,0,1-1-4.78,11,11,0,0,1,1.18-5.1,11.81,11.81,0,0,1,3.35-3.95,16.32,16.32,0,0,1,5.1-2.59,21.62,21.62,0,0,1,6.54-.93,26.69,26.69,0,0,1,4.6.39,15.28,15.28,0,0,1,3.88,1.19V395q0-6.54-7.55-6.54a16.87,16.87,0,0,0-5.89,1,28.52,28.52,0,0,0-5.89,3.13l-3.38-7.19a30,30,0,0,1,7.76-3.66,29.12,29.12,0,0,1,8.55-1.22c5.71,0,10.11,1.34,13.23,4s4.67,6.61,4.67,11.79v9.7a2.66,2.66,0,0,0,2.95,3.23V419a22.32,22.32,0,0,1-3.06.46c-.93.08-1.76.11-2.48.11a8.38,8.38,0,0,1-4.81-1.29,5.43,5.43,0,0,1-2.09-3.52L707,413a17.25,17.25,0,0,1-6,5A16.42,16.42,0,0,1,693.62,419.73Zm3.38-8.27a10.3,10.3,0,0,0,3.63-.65,8.47,8.47,0,0,0,2.91-1.72,3.56,3.56,0,0,0,1.65-2.73v-3.6a18.61,18.61,0,0,0-3.27-.89,17.76,17.76,0,0,0-3.27-.33,8.85,8.85,0,0,0-5.21,1.44,4.37,4.37,0,0,0-2.05,3.74,4.25,4.25,0,0,0,1.58,3.41A6,6,0,0,0,697,411.46Z" transform="translate(-558.24 -326.93)"/><path class="cls-1" d="M761.68,419h-11.5v-21.2q0-3.68-1.47-5.4a5,5,0,0,0-4-1.72,6,6,0,0,0-2.19.47,8.7,8.7,0,0,0-2.3,1.36,12.52,12.52,0,0,0-2.05,2.12,9.64,9.64,0,0,0-1.44,2.73V419h-11.5V366.54h11.5V387.6a14.39,14.39,0,0,1,5.5-5.21,15.79,15.79,0,0,1,7.58-1.83,12.36,12.36,0,0,1,6.15,1.33,9.74,9.74,0,0,1,3.59,3.37,12.82,12.82,0,0,1,1.69,4.6,29.72,29.72,0,0,1,.43,5Z" transform="translate(-558.24 -326.93)"/><path class="cls-1" d="M787.2,419.73a22.11,22.11,0,0,1-8.59-1.58,18.66,18.66,0,0,1-6.36-4.28,18.07,18.07,0,0,1-3.92-6.25,21.47,21.47,0,0,1,0-14.88,18.12,18.12,0,0,1,3.92-6.26,19.16,19.16,0,0,1,6.36-4.31,21.57,21.57,0,0,1,8.59-1.61,21.31,21.31,0,0,1,8.55,1.61,19.45,19.45,0,0,1,6.33,4.31,18.65,18.65,0,0,1,3.95,6.26,20.57,20.57,0,0,1,1.36,7.44,21.06,21.06,0,0,1-1.33,7.44,18,18,0,0,1-3.91,6.25,18.85,18.85,0,0,1-6.36,4.28A22.15,22.15,0,0,1,787.2,419.73Zm-8.41-19.55a10.44,10.44,0,0,0,2.37,7.15,7.67,7.67,0,0,0,6,2.69,7.56,7.56,0,0,0,3.3-.72,7.9,7.9,0,0,0,2.63-2,9.64,9.64,0,0,0,1.76-3.12,12,12,0,0,0,.64-4,10.42,10.42,0,0,0-2.37-7.15,7.6,7.6,0,0,0-6-2.7,7.82,7.82,0,0,0-6,2.73,9.51,9.51,0,0,0-1.76,3.13A11.68,11.68,0,0,0,778.79,400.18Z" transform="translate(-558.24 -326.93)"/><path class="cls-2" d="M558.42,403a42.85,42.85,0,0,0,78.79,19.24L619,413.52c-.2.26-.42.51-.64.76-.05.06-.09.12-.14.17-.32.36-.65.7-1,1l-.3.28-.77.71-.38.32-.78.62-.37.28c-.35.25-.7.5-1.05.73l-.14.09c-.41.26-.83.5-1.25.74l-.38.2c-.3.16-.61.32-.93.46-.15.08-.3.14-.46.21l-.94.4-.43.16c-.43.16-.87.31-1.31.44l-.09,0c-.47.14-1,.26-1.43.37l-.45.09c-.34.08-.69.14-1,.2l-.52.07c-.35.05-.7.09-1.06.12l-.47,0c-.51,0-1,.05-1.54.05a22.88,22.88,0,0,1-20.61-12.92,22.53,22.53,0,0,1-.91-2.14h38.27v-17.8h-.77A79.81,79.81,0,0,1,558.42,403Z" transform="translate(-558.24 -326.93)"/><path class="cls-3" d="M643.34,357.44a79.9,79.9,0,0,1-21.63,28.23V407h21.06V377.39h22.48a3,3,0,0,0,3-3v-14a3,3,0,0,0-3-3Z" transform="translate(-558.24 -326.93)"/><path class="cls-4" d="M591.51,378.42c0-2.73,0-19.95,0-21a42.87,42.87,0,0,0-33.29,41.77c0,1.29.07,2.57.18,3.83a79.81,79.81,0,0,0,58.66-13.8H580.49A22.93,22.93,0,0,1,591.51,378.42Z" transform="translate(-558.24 -326.93)"/><path class="cls-5" d="M643.34,357.44h-.57V329.91a3,3,0,0,0-3-3H624.68a3,3,0,0,0-3,3v27.53l-26.32,0v19.91h26.32v8.28A79.9,79.9,0,0,0,643.34,357.44Z" transform="translate(-558.24 -326.93)"/><path class="cls-1" d="M634.27,440.35q16.71-3.6,33.61-6.26t33.9-4.37q17-1.73,34.09-2.48t34.35-.57q17.09.19,34.15,1.36c1.41.09,2.82.19,4.22.3.17,0-.65-1.66-.73-1.78-.22-.37-.72-1.43-1.23-1.47q-17-1.26-34.15-1.59t-34.17.33q-17.09.63-34.11,2.23t-34.1,4.15q-16.9,2.55-33.65,6l-4.15.88c-.24.05.66,1.65.73,1.78s.82,1.55,1.24,1.46Z" transform="translate(-558.24 -326.93)"/></svg>